<mxfile host="65bd71144e">
    <diagram id="BODp2NOLe_0rlnsvd4k3" name="Page-1">
        <mxGraphModel dx="501" dy="1110" grid="1" gridSize="10" guides="1" tooltips="1" connect="1" arrows="1" fold="1" page="1" pageScale="1" pageWidth="1169" pageHeight="827" math="0" shadow="0">
            <root>
                <mxCell id="0"/>
                <mxCell id="1" parent="0"/>
                <mxCell id="F0e7Vz2ome87qkJYAM5c-38" value="" style="rounded=0;whiteSpace=wrap;html=1;" parent="1" vertex="1">
                    <mxGeometry width="890" height="80" as="geometry"/>
                </mxCell>
                <mxCell id="F0e7Vz2ome87qkJYAM5c-27" value="" style="strokeWidth=1;shadow=0;dashed=0;align=center;html=1;shape=mxgraph.mockup.rrect;rSize=10;fillColor=#ffffff;strokeColor=#666666;autosize=1;" parent="1" vertex="1">
                    <mxGeometry x="60" y="100" width="810" height="50" as="geometry"/>
                </mxCell>
                <mxCell id="F0e7Vz2ome87qkJYAM5c-28" value="EntityStore" style="strokeColor=inherit;fillColor=inherit;gradientColor=inherit;strokeWidth=1;shadow=0;dashed=0;align=center;html=1;shape=mxgraph.mockup.rrect;rSize=0;fontSize=17;fontColor=#666666;fontStyle=1;resizeHeight=1;" parent="F0e7Vz2ome87qkJYAM5c-27" vertex="1">
                    <mxGeometry width="125" height="50" relative="1" as="geometry">
                        <mxPoint x="125" as="offset"/>
                    </mxGeometry>
                </mxCell>
                <mxCell id="F0e7Vz2ome87qkJYAM5c-29" value="EntityStore" style="strokeColor=inherit;fillColor=inherit;gradientColor=inherit;strokeWidth=1;shadow=0;dashed=0;align=center;html=1;shape=mxgraph.mockup.rrect;rSize=0;fontSize=17;fontColor=#666666;fontStyle=1;resizeHeight=1;autosize=0;" parent="F0e7Vz2ome87qkJYAM5c-27" vertex="1">
                    <mxGeometry width="110" height="50" relative="1" as="geometry">
                        <mxPoint x="250" as="offset"/>
                    </mxGeometry>
                </mxCell>
                <mxCell id="F0e7Vz2ome87qkJYAM5c-30" value="Add shelf" style="strokeColor=inherit;fillColor=inherit;gradientColor=inherit;strokeWidth=1;shadow=0;dashed=0;align=center;html=1;shape=mxgraph.mockup.rightButton;rSize=10;fontSize=17;fontColor=#666666;fontStyle=1;resizeHeight=1;" parent="F0e7Vz2ome87qkJYAM5c-27" vertex="1">
                    <mxGeometry x="1" width="125" height="50" relative="1" as="geometry">
                        <mxPoint x="-125" as="offset"/>
                    </mxGeometry>
                </mxCell>
                <mxCell id="F0e7Vz2ome87qkJYAM5c-31" value="Shelf 1" style="strokeWidth=1;shadow=0;dashed=0;align=center;html=1;shape=mxgraph.mockup.leftButton;rSize=10;fontSize=17;fontColor=#ffffff;fontStyle=1;fillColor=#008cff;strokeColor=#008cff;resizeHeight=1;" parent="F0e7Vz2ome87qkJYAM5c-27" vertex="1">
                    <mxGeometry width="125" height="50" relative="1" as="geometry"/>
                </mxCell>
                <mxCell id="F0e7Vz2ome87qkJYAM5c-32" value="&lt;table cellpadding=&quot;4&quot; cellspacing=&quot;0&quot; border=&quot;1&quot; style=&quot;font-size:1em;width:100%;height:100%;&quot;&gt;&lt;tr&gt;&lt;th&gt;Header 1&lt;/th&gt;&lt;th&gt;Header 2&lt;/th&gt;&lt;/tr&gt;&lt;tr&gt;&lt;td&gt;row 1, cell 1&lt;/td&gt;&lt;td&gt;row 1, cell 2&lt;/td&gt;&lt;/tr&gt;&lt;tr&gt;&lt;td&gt;row 2, cell 1&lt;/td&gt;&lt;td&gt;row 2, cell 2&lt;/td&gt;&lt;/tr&gt;&lt;/table&gt; " style="verticalAlign=top;align=left;overflow=fill;fontSize=12;fontFamily=Helvetica;html=1" parent="1" vertex="1">
                    <mxGeometry x="60" y="170" width="810" height="540" as="geometry"/>
                </mxCell>
                <mxCell id="F0e7Vz2ome87qkJYAM5c-33" value="" style="strokeWidth=1;shadow=0;dashed=0;align=center;html=1;shape=mxgraph.mockup.rrect;rSize=10;fillColor=#ffffff;strokeColor=#666666;" parent="1" vertex="1">
                    <mxGeometry x="380" y="15" width="500" height="50" as="geometry"/>
                </mxCell>
                <mxCell id="F0e7Vz2ome87qkJYAM5c-34" value="Type 2" style="strokeColor=inherit;fillColor=inherit;gradientColor=inherit;strokeWidth=1;shadow=0;dashed=0;align=center;html=1;shape=mxgraph.mockup.rrect;rSize=0;fontSize=17;fontColor=#666666;fontStyle=1;resizeHeight=1;" parent="F0e7Vz2ome87qkJYAM5c-33" vertex="1">
                    <mxGeometry width="125" height="50" relative="1" as="geometry">
                        <mxPoint x="125" as="offset"/>
                    </mxGeometry>
                </mxCell>
                <mxCell id="F0e7Vz2ome87qkJYAM5c-35" value="Settings" style="strokeColor=inherit;fillColor=inherit;gradientColor=inherit;strokeWidth=1;shadow=0;dashed=0;align=center;html=1;shape=mxgraph.mockup.rrect;rSize=0;fontSize=17;fontColor=#666666;fontStyle=1;resizeHeight=1;" parent="F0e7Vz2ome87qkJYAM5c-33" vertex="1">
                    <mxGeometry width="125" height="50" relative="1" as="geometry">
                        <mxPoint x="250" as="offset"/>
                    </mxGeometry>
                </mxCell>
                <mxCell id="F0e7Vz2ome87qkJYAM5c-36" value="Profile" style="strokeColor=inherit;fillColor=inherit;gradientColor=inherit;strokeWidth=1;shadow=0;dashed=0;align=center;html=1;shape=mxgraph.mockup.rightButton;rSize=10;fontSize=17;fontColor=#666666;fontStyle=1;resizeHeight=1;" parent="F0e7Vz2ome87qkJYAM5c-33" vertex="1">
                    <mxGeometry x="1" width="125" height="50" relative="1" as="geometry">
                        <mxPoint x="-125" as="offset"/>
                    </mxGeometry>
                </mxCell>
                <mxCell id="F0e7Vz2ome87qkJYAM5c-37" value="Books" style="strokeWidth=1;shadow=0;dashed=0;align=center;html=1;shape=mxgraph.mockup.leftButton;rSize=10;fontSize=17;fontColor=#ffffff;fontStyle=1;fillColor=#008cff;strokeColor=#008cff;resizeHeight=1;" parent="F0e7Vz2ome87qkJYAM5c-33" vertex="1">
                    <mxGeometry width="125" height="50" relative="1" as="geometry"/>
                </mxCell>
                <mxCell id="F0e7Vz2ome87qkJYAM5c-39" value="Title" style="text;html=1;strokeColor=none;fillColor=none;align=center;verticalAlign=middle;whiteSpace=wrap;rounded=0;fontSize=32;" parent="1" vertex="1">
                    <mxGeometry width="170" height="80" as="geometry"/>
                </mxCell>
            </root>
        </mxGraphModel>
    </diagram>
</mxfile>